<svg width="195" height="94" viewBox="0 0 195 94" fill="none" xmlns="http://www.w3.org/2000/svg">
<g opacity="0.73">
<rect width="186.622" height="85.8586" rx="20" transform="matrix(0.999994 -0.00344238 0.00378269 0.999993 7.54041 0.686218)" fill="#848484" fill-opacity="0.2"/>
<path opacity="0.76" d="M32.3201 20.8925C31.8401 20.8941 31.3958 20.8087 30.9871 20.6361C30.5844 20.4634 30.2295 20.2217 29.9223 19.9107C29.6212 19.5998 29.3858 19.2346 29.2162 18.8151C29.0466 18.3957 28.9609 17.937 28.959 17.439C28.9571 16.941 29.0364 16.4817 29.1968 16.0612C29.3632 15.6346 29.5958 15.2678 29.8946 14.9608C30.1994 14.6477 30.5555 14.4065 30.9629 14.2371C31.3702 14.0617 31.8139 13.9732 32.2939 13.9715C32.7739 13.9699 33.2032 14.0494 33.5818 14.2101C33.9664 14.3708 34.2912 14.5856 34.5563 14.8547C34.8212 15.1178 35.0113 15.4082 35.1266 15.7258L34.0305 16.2426C33.9032 15.907 33.6892 15.6317 33.3884 15.4168C33.0875 15.1958 32.7241 15.086 32.2981 15.0875C31.8781 15.089 31.5065 15.1892 31.1832 15.3884C30.866 15.5874 30.618 15.8613 30.4393 16.2099C30.2667 16.5585 30.1812 16.9668 30.183 17.4348C30.1848 17.9028 30.2733 18.3135 30.4486 18.6669C30.63 19.0143 30.88 19.2864 31.1987 19.4833C31.5235 19.6802 31.8959 19.7779 32.3159 19.7765C32.7419 19.775 33.1044 19.6658 33.4036 19.4487C33.7028 19.2257 33.9147 18.946 34.0395 18.6095L35.1394 19.1188C35.0266 19.4371 34.8387 19.7318 34.5757 20.0027C34.3127 20.2676 33.9895 20.4817 33.6061 20.645C33.2288 20.8083 32.8001 20.8908 32.3201 20.8925ZM37.7868 20.8737C37.4088 20.875 37.0785 20.7921 36.7958 20.6251C36.5192 20.458 36.3053 20.2247 36.1542 19.9253C36.009 19.6258 35.9357 19.275 35.9342 18.873L35.9229 15.876L37.1018 15.872L37.1128 18.77C37.1136 18.974 37.1533 19.1538 37.2318 19.3096C37.3164 19.4593 37.4339 19.5789 37.5842 19.6683C37.7405 19.7518 37.9147 19.7932 38.1067 19.7925C38.2987 19.7919 38.4695 19.7493 38.6192 19.6648C38.7689 19.5743 38.8854 19.4509 38.9688 19.2946C39.0522 19.1383 39.0935 18.9521 39.0927 18.7361L39.0818 15.8652L40.2608 15.8611L40.2793 20.7571L39.1634 20.7609L39.1597 19.7979L39.2594 19.9686C39.1465 20.269 38.9583 20.4946 38.6949 20.6455C38.4375 20.7964 38.1348 20.8725 37.7868 20.8737ZM41.3753 20.7533L41.3568 15.8573L42.4638 15.8535L42.4679 16.9425L42.3773 16.7808C42.4899 16.4144 42.6659 16.1588 42.9054 16.014C43.1508 15.8692 43.4446 15.7961 43.7866 15.795L44.0746 15.794L44.0785 16.838L43.6555 16.8394C43.3195 16.8406 43.0499 16.9465 42.8467 17.1572C42.6435 17.3619 42.5426 17.6503 42.544 18.0223L42.5543 20.7492L41.3753 20.7533ZM44.7415 20.7417L44.723 15.8457L45.83 15.8419L45.8341 16.9309L45.7435 16.7692C45.8561 16.4028 46.0321 16.1472 46.2716 16.0024C46.517 15.8576 46.8108 15.7846 47.1528 15.7834L47.4408 15.7824L47.4447 16.8264L47.0217 16.8278C46.6857 16.829 46.4161 16.9349 46.2129 17.1456C46.0097 17.3503 45.9088 17.6387 45.9102 18.0107L45.9205 20.7377L44.7415 20.7417ZM50.4301 20.8301C49.9261 20.8319 49.4847 20.7194 49.1058 20.4927C48.7269 20.266 48.4318 19.958 48.2203 19.5687C48.0088 19.1795 47.9022 18.7478 47.9004 18.2738C47.8985 17.7818 48.0019 17.3465 48.2105 16.9677C48.425 16.583 48.7148 16.279 49.08 16.0557C49.4512 15.8325 49.8647 15.72 50.3207 15.7185C50.7047 15.7172 51.041 15.779 51.3294 15.904C51.6239 16.029 51.8736 16.2021 52.0784 16.4234C52.2833 16.6447 52.4402 16.8992 52.5493 17.1868C52.6584 17.4684 52.7135 17.7743 52.7148 18.1042C52.7151 18.1882 52.7094 18.2753 52.6978 18.3653C52.6921 18.4553 52.6774 18.5334 52.6537 18.5995L48.8737 18.6125L48.8703 17.7125L51.9843 17.7018L51.4279 18.1267C51.4808 17.8505 51.4649 17.6045 51.3801 17.3888C51.3012 17.1731 51.1686 17.0026 50.9821 16.8772C50.8017 16.7518 50.5824 16.6896 50.3244 16.6905C50.0784 16.6913 49.8597 16.7551 49.6681 16.8817C49.4766 17.0024 49.3303 17.1829 49.2292 17.4232C49.1341 17.6576 49.0991 17.9427 49.1244 18.2786C49.1016 18.5787 49.1416 18.8456 49.2444 19.0792C49.3533 19.3068 49.51 19.4833 49.7145 19.6086C49.9249 19.7339 50.1652 19.796 50.4352 19.7951C50.7052 19.7942 50.9329 19.7364 51.1185 19.6218C51.3101 19.5071 51.4595 19.3536 51.5668 19.1612L52.5225 19.6259C52.4274 19.8602 52.2782 20.0678 52.0749 20.2485C51.8716 20.4292 51.6291 20.571 51.3475 20.674C51.0719 20.7769 50.7661 20.829 50.4301 20.8301ZM53.6184 20.7112L53.5999 15.8152L54.7069 15.8114L54.7105 16.7744L54.6199 16.6037C54.7327 16.3093 54.9179 16.0867 55.1753 15.9358C55.4387 15.7789 55.7445 15.6998 56.0924 15.6986C56.4524 15.6974 56.7707 15.7743 57.0473 15.9293C57.3299 16.0843 57.5497 16.3026 57.7068 16.5841C57.8639 16.8595 57.9431 17.1802 57.9445 17.5462L57.9564 20.6962L56.7774 20.7003L56.7665 17.8293C56.7657 17.6133 56.723 17.4274 56.6384 17.2717C56.5538 17.116 56.4364 16.9964 56.286 16.9129C56.1417 16.8234 55.9705 16.779 55.7725 16.7797C55.5805 16.7804 55.4097 16.826 55.26 16.9165C55.1104 17.001 54.9938 17.1214 54.9104 17.2777C54.827 17.434 54.7857 17.6201 54.7865 17.8361L54.7974 20.7071L53.6184 20.7112ZM61.1855 20.7391C60.6335 20.741 60.204 20.5925 59.8968 20.2935C59.5957 19.9886 59.444 19.5601 59.442 19.0081L59.4338 16.8481L58.5878 16.851L58.5838 15.798L58.6738 15.7977C58.9138 15.7969 59.0996 15.7333 59.2311 15.6068C59.3626 15.4803 59.4279 15.2971 59.427 15.0571L59.4256 14.6791L60.6046 14.6751L60.6088 15.7911L61.7338 15.7872L61.7378 16.8402L60.6128 16.8441L60.6207 18.941C60.6213 19.103 60.6488 19.2409 60.7033 19.3548C60.7637 19.4685 60.854 19.5552 60.9743 19.6148C61.1005 19.6744 61.2596 19.7038 61.4516 19.7032C61.4936 19.703 61.5416 19.6999 61.5956 19.6937C61.6555 19.6875 61.7125 19.6813 61.7665 19.6751L61.7703 20.6831C61.6863 20.6954 61.5904 20.7077 61.4824 20.7201C61.3745 20.7325 61.2755 20.7388 61.1855 20.7391ZM66.9441 20.7733C66.5901 20.7745 66.2628 20.7066 65.9623 20.5697C65.6677 20.4267 65.433 20.2235 65.258 19.9601L65.3741 19.7257L65.3777 20.6707L64.2707 20.6745L64.2449 13.8615L65.4239 13.8575L65.4348 16.7465L65.2539 16.5041C65.4209 16.2395 65.6481 16.0347 65.9356 15.8897C66.223 15.7387 66.5557 15.6626 66.9337 15.6613C67.3957 15.6597 67.8132 15.7723 68.186 15.999C68.5589 16.2257 68.854 16.5307 69.0715 16.9139C69.2949 17.2972 69.4076 17.7288 69.4094 18.2088C69.4112 18.6828 69.3048 19.1151 69.0903 19.5059C68.8758 19.8966 68.5829 20.2066 68.2118 20.4359C67.8406 20.6592 67.4181 20.7716 66.9441 20.7733ZM66.805 19.6938C67.075 19.6928 67.3147 19.629 67.5243 19.5023C67.7338 19.3756 67.8951 19.201 68.0083 18.9786C68.1274 18.7562 68.1865 18.501 68.1854 18.213C68.1843 17.925 68.1233 17.6732 68.0025 17.4576C67.8877 17.236 67.725 17.0626 67.5146 16.9373C67.3041 16.806 67.0638 16.7408 66.7938 16.7418C66.5358 16.7427 66.3021 16.8065 66.0925 16.9332C65.889 17.0599 65.7277 17.2374 65.6085 17.4659C65.4954 17.6883 65.4393 17.9404 65.4404 18.2224C65.4415 18.5104 65.4995 18.7652 65.6143 18.9868C65.7351 19.2084 65.8978 19.3819 66.1023 19.5072C66.3127 19.6324 66.547 19.6946 66.805 19.6938ZM71.8029 20.7566C71.4609 20.7577 71.1637 20.7018 70.9113 20.5886C70.6588 20.4755 70.4632 20.3142 70.3244 20.1046C70.1856 19.8891 70.1157 19.6404 70.1146 19.3584C70.1136 19.0884 70.1727 18.8482 70.2919 18.6377C70.4111 18.4213 70.5964 18.2407 70.8478 18.0958C71.0993 17.951 71.4169 17.8479 71.8007 17.7865L73.4017 17.52L73.4051 18.42L72.029 18.6588C71.7951 18.7016 71.6214 18.7772 71.5078 18.8856C71.3942 18.994 71.3378 19.1351 71.3384 19.3091C71.3391 19.4771 71.4026 19.6119 71.529 19.7135C71.6613 19.809 71.8235 19.8565 72.0155 19.8558C72.2615 19.855 72.4773 19.8032 72.6629 19.7006C72.8545 19.5919 73.001 19.4444 73.1023 19.2581C73.2095 19.0717 73.2628 18.8675 73.2619 18.6455L73.2572 17.3855C73.2564 17.1755 73.1717 17.0018 73.0032 16.8644C72.8407 16.721 72.6244 16.6497 72.3544 16.6506C72.1024 16.6515 71.8776 16.7213 71.6802 16.86C71.4887 16.9926 71.3483 17.1701 71.2592 17.3924L70.2944 16.9277C70.3894 16.6694 70.5386 16.4469 70.7419 16.2602C70.9512 16.0675 71.1966 15.9166 71.4782 15.8076C71.7598 15.6987 72.0656 15.6436 72.3956 15.6425C72.7976 15.6411 73.1518 15.7149 73.4584 15.8638C73.765 16.0068 74.0027 16.21 74.1717 16.4734C74.3467 16.7308 74.4348 17.0335 74.4362 17.3815L74.4485 20.6394L73.3325 20.6433L73.3293 19.8063L73.5813 19.7874C73.4561 19.9979 73.3067 20.1754 73.1333 20.32C72.9598 20.4586 72.7622 20.5673 72.5405 20.646C72.3188 20.7188 72.0729 20.7556 71.8029 20.7566ZM75.5382 20.6357L75.5124 13.8227L76.6914 13.8187L76.7172 20.6316L75.5382 20.6357ZM79.2911 20.7308C78.9491 20.732 78.6519 20.676 78.3995 20.5628C78.1471 20.4497 77.9515 20.2884 77.8127 20.0789C77.6739 19.8633 77.6039 19.6146 77.6028 19.3326C77.6018 19.0626 77.6609 18.8224 77.7801 18.612C77.8993 18.3956 78.0846 18.2149 78.3361 18.0701C78.5875 17.9252 78.9051 17.8221 79.2889 17.7608L80.8899 17.4943L80.8933 18.3942L79.5172 18.633C79.2834 18.6758 79.1097 18.7514 78.9961 18.8598C78.8825 18.9682 78.826 19.1094 78.8267 19.2834C78.8273 19.4514 78.8908 19.5861 79.0172 19.6877C79.1496 19.7833 79.3117 19.8307 79.5037 19.83C79.7497 19.8292 79.9655 19.7775 80.1512 19.6748C80.3427 19.5662 80.4892 19.4186 80.5905 19.2323C80.6978 19.0459 80.751 18.8417 80.7502 18.6197L80.7454 17.3598C80.7446 17.1498 80.66 16.976 80.4914 16.8386C80.3289 16.6952 80.1126 16.6239 79.8426 16.6249C79.5906 16.6257 79.3659 16.6955 79.1684 16.8342C78.9769 16.9668 78.8366 17.1443 78.7474 17.3666L77.7827 16.9019C77.8777 16.6436 78.0268 16.4211 78.2301 16.2344C78.4394 16.0417 78.6848 15.8908 78.9664 15.7819C79.248 15.6729 79.5538 15.6178 79.8838 15.6167C80.2858 15.6153 80.6401 15.6891 80.9467 15.8381C81.2532 15.981 81.491 16.1842 81.66 16.4476C81.8349 16.705 81.9231 17.0077 81.9244 17.3557L81.9367 20.6137L80.8207 20.6175L80.8176 19.7805L81.0695 19.7617C80.9443 19.9721 80.795 20.1496 80.6215 20.2942C80.448 20.4328 80.2504 20.5415 80.0287 20.6202C79.807 20.693 79.5611 20.7298 79.2911 20.7308ZM83.0264 20.6099L83.0079 15.714L84.1149 15.7101L84.1185 16.6731L84.0279 16.5024C84.1408 16.2081 84.3259 15.9854 84.5834 15.8345C84.8468 15.6776 85.1525 15.5986 85.5005 15.5974C85.8605 15.5961 86.1788 15.673 86.4554 15.8281C86.7379 15.9831 86.9578 16.2014 87.1148 16.4828C87.2719 16.7583 87.3511 17.079 87.3525 17.445L87.3644 20.595L86.1854 20.599L86.1745 17.7281C86.1737 17.5121 86.131 17.3262 86.0464 17.1705C85.9618 17.0148 85.8444 16.8952 85.6941 16.8117C85.5497 16.7222 85.3786 16.6778 85.1806 16.6785C84.9886 16.6791 84.8177 16.7247 84.6681 16.8152C84.5184 16.8998 84.4019 17.0202 84.3184 17.1765C84.235 17.3327 84.1937 17.5189 84.1946 17.7349L84.2054 20.6059L83.0264 20.6099ZM90.7197 20.6914C90.2337 20.6931 89.7953 20.5836 89.4045 20.363C89.0196 20.1363 88.7155 19.8313 88.492 19.4481C88.2685 19.0589 88.1559 18.6212 88.1541 18.1353C88.1522 17.6493 88.2616 17.2139 88.4821 16.8291C88.7027 16.4444 89.0045 16.1403 89.3877 15.917C89.7768 15.6937 90.2144 15.5811 90.7004 15.5795C91.0484 15.5783 91.3726 15.6402 91.6731 15.7651C91.9736 15.8841 92.2322 16.0512 92.449 16.2665C92.6718 16.4757 92.8318 16.7271 92.9289 17.0208L91.8956 17.4744C91.8046 17.2287 91.6509 17.0312 91.4343 16.882C91.2238 16.7327 90.9805 16.6585 90.7045 16.6595C90.4465 16.6604 90.2157 16.7241 90.0122 16.8508C89.8147 16.9775 89.6593 17.1521 89.5462 17.3745C89.433 17.5968 89.377 17.852 89.3781 18.14C89.3792 18.428 89.4371 18.6828 89.552 18.9044C89.6668 19.1261 89.8235 19.2995 90.0219 19.4248C90.2264 19.5501 90.4577 19.6123 90.7157 19.6114C90.9977 19.6105 91.2434 19.5346 91.4528 19.3839C91.6622 19.2332 91.8115 19.0317 91.9005 18.7794L92.9373 19.2438C92.8423 19.5201 92.6873 19.7697 92.4721 19.9924C92.2569 20.2091 91.9996 20.381 91.7001 20.5081C91.4005 20.6291 91.0737 20.6902 90.7197 20.6914ZM96.1593 20.6727C95.6553 20.6744 95.2139 20.562 94.835 20.3353C94.4561 20.1086 94.161 19.8006 93.9495 19.4113C93.738 19.022 93.6314 18.5904 93.6296 18.1164C93.6277 17.6244 93.7311 17.189 93.9397 16.8103C94.1542 16.4256 94.4441 16.1216 94.8092 15.8983C95.1804 15.6751 95.594 15.5626 96.05 15.5611C96.434 15.5597 96.7702 15.6216 97.0587 15.7466C97.3531 15.8716 97.6028 16.0447 97.8076 16.266C98.0125 16.4873 98.1694 16.7418 98.2785 17.0294C98.3876 17.311 98.4427 17.6168 98.444 17.9468C98.4443 18.0308 98.4386 18.1178 98.427 18.2079C98.4213 18.2979 98.4066 18.376 98.3829 18.442L94.6029 18.4551L94.5995 17.5551L97.7135 17.5443L97.1571 17.9693C97.21 17.6931 97.1941 17.4471 97.1093 17.2314C97.0305 17.0157 96.8978 16.8451 96.7113 16.7198C96.5309 16.5944 96.3116 16.5322 96.0536 16.5331C95.8076 16.5339 95.5889 16.5977 95.3974 16.7243C95.2058 16.845 95.0595 17.0255 94.9584 17.2658C94.8633 17.5002 94.8284 17.7853 94.8536 18.1212C94.8308 18.4213 94.8708 18.6881 94.9737 18.9218C95.0825 19.1494 95.2392 19.3259 95.4437 19.4512C95.6541 19.5764 95.8944 19.6386 96.1644 19.6377C96.4344 19.6368 96.6622 19.579 96.8477 19.4643C97.0393 19.3497 97.1887 19.1962 97.296 19.0038L98.2518 19.4685C98.1566 19.7028 98.0074 19.9103 97.8041 20.091C97.6008 20.2717 97.3583 20.4136 97.0767 20.5166C96.8011 20.6195 96.4953 20.6716 96.1593 20.6727Z" fill="white"/>
<path opacity="0.76" d="M27.9731 65.6001L27.9534 60.3852L28.9054 60.3819L28.9219 64.7569L31.1549 64.7492L31.1581 65.5892L27.9731 65.6001ZM32.8522 65.6673C32.5862 65.6682 32.355 65.6247 32.1587 65.5367C31.9624 65.4487 31.8102 65.3232 31.7023 65.1603C31.5943 64.9927 31.5399 64.7992 31.5391 64.5798C31.5383 64.3698 31.5842 64.183 31.677 64.0194C31.7697 63.851 31.9138 63.7105 32.1094 63.5979C32.3049 63.4852 32.552 63.405 32.8505 63.3573L34.0957 63.15L34.0983 63.85L33.028 64.0357C32.8462 64.069 32.711 64.1278 32.6227 64.2121C32.5343 64.2964 32.4904 64.4062 32.4909 64.5416C32.4914 64.6722 32.5408 64.7771 32.6391 64.8561C32.7421 64.9304 32.8682 64.9673 33.0175 64.9668C33.2089 64.9661 33.3767 64.9259 33.5211 64.846C33.6701 64.7615 33.784 64.6468 33.8628 64.5018C33.9462 64.3569 33.9876 64.1981 33.987 64.0254L33.9833 63.0454C33.9827 62.8821 33.9168 62.747 33.7858 62.6401C33.6593 62.5285 33.4911 62.4731 33.2811 62.4738C33.0851 62.4745 32.9103 62.5288 32.7567 62.6366C32.6078 62.7398 32.4986 62.8779 32.4293 63.0508L31.6789 62.6893C31.7528 62.4884 31.8688 62.3154 32.027 62.1701C32.1897 62.0203 32.3806 61.9029 32.5996 61.8182C32.8187 61.7334 33.0565 61.6906 33.3132 61.6897C33.6258 61.6886 33.9014 61.746 34.1398 61.8619C34.3782 61.9731 34.5632 62.1311 34.6946 62.336C34.8307 62.5362 34.8993 62.7716 34.9003 63.0423L34.9099 65.5762L34.0419 65.5792L34.0394 64.9282L34.2354 64.9136C34.138 65.0772 34.0218 65.2153 33.8869 65.3278C33.752 65.4356 33.5983 65.5201 33.4259 65.5814C33.2534 65.6379 33.0622 65.6666 32.8522 65.6673ZM37.2067 65.6523C36.8007 65.6537 36.4457 65.5593 36.1416 65.369C35.8422 65.174 35.6359 64.9111 35.5227 64.5801L36.2074 64.2488C36.3062 64.4631 36.4422 64.6306 36.6153 64.7514C36.7931 64.8721 36.9893 64.9321 37.204 64.9313C37.372 64.9308 37.5048 64.893 37.6026 64.818C37.7003 64.743 37.7489 64.6448 37.7485 64.5235C37.7482 64.4488 37.7269 64.3882 37.6848 64.3417C37.6472 64.2905 37.5934 64.2487 37.5233 64.2162C37.4578 64.1791 37.3854 64.149 37.3059 64.126L36.6823 63.9531C36.3599 63.8609 36.1144 63.7194 35.9457 63.5287C35.7816 63.3379 35.6991 63.1118 35.6981 62.8505C35.6972 62.6172 35.7548 62.414 35.8708 62.2409C35.9915 62.0632 36.1566 61.9249 36.3662 61.8262C36.5805 61.7275 36.8253 61.6776 37.1007 61.6767C37.46 61.6754 37.7777 61.7607 38.0537 61.9324C38.3296 62.1041 38.5266 62.3461 38.6444 62.6584L37.9457 62.9898C37.8797 62.8173 37.7695 62.68 37.6151 62.5779C37.4607 62.4758 37.2878 62.425 37.0965 62.4257C36.9425 62.4262 36.8213 62.4616 36.7329 62.532C36.6445 62.6023 36.6005 62.6934 36.6009 62.8054C36.6012 62.8754 36.6201 62.936 36.6576 62.9872C36.6952 63.0384 36.7467 63.0802 36.8121 63.1127C36.8822 63.1451 36.9617 63.1752 37.0505 63.2029L37.6601 63.3828C37.9732 63.475 38.214 63.6142 38.3827 63.8003C38.5561 63.9863 38.6433 64.2147 38.6443 64.4854C38.6452 64.714 38.5853 64.9173 38.4646 65.095C38.3439 65.2681 38.1765 65.404 37.9622 65.5027C37.7479 65.6015 37.4961 65.6513 37.2067 65.6523ZM41.0892 65.597C40.6599 65.5984 40.3258 65.4829 40.0869 65.2504C39.8527 65.0132 39.7348 64.68 39.7331 64.2506L39.7268 62.5706L39.0688 62.5729L39.0657 61.7539L39.1357 61.7537C39.3224 61.753 39.4668 61.7035 39.5691 61.6052C39.6714 61.5068 39.7222 61.3643 39.7215 61.1777L39.7204 60.8837L40.6374 60.8805L40.6407 61.7485L41.5157 61.7455L41.5188 62.5645L40.6438 62.5675L40.6499 64.1985C40.6504 64.3245 40.6718 64.4317 40.7142 64.5203C40.7612 64.6088 40.8314 64.6762 40.9249 64.7225C41.0231 64.7689 41.1469 64.7918 41.2962 64.7913C41.3289 64.7911 41.3662 64.7887 41.4082 64.7839C41.4548 64.779 41.4991 64.7742 41.5411 64.7694L41.5441 65.5534C41.4788 65.563 41.4041 65.5726 41.3202 65.5822C41.2362 65.5918 41.1592 65.5967 41.0892 65.597ZM43.4941 66.9467L43.4744 61.7387L44.3354 61.7358L44.3383 62.4918L44.2535 62.3031C44.3834 62.0973 44.5602 61.938 44.7837 61.8252C45.0073 61.7078 45.2661 61.6486 45.5601 61.6476C45.9194 61.6463 46.2441 61.7339 46.5341 61.9102C46.8241 62.0865 47.0536 62.3238 47.2228 62.6218C47.3966 62.9199 47.4842 63.2556 47.4856 63.6289C47.487 63.9976 47.4042 64.3339 47.2374 64.6378C47.0705 64.9417 46.8428 65.1828 46.5541 65.3612C46.2655 65.5348 45.9368 65.6223 45.5681 65.6236C45.2928 65.6245 45.0382 65.5717 44.8045 65.4652C44.5754 65.354 44.3928 65.1959 44.2567 64.9911L44.403 64.8086L44.4111 66.9435L43.4941 66.9467ZM45.4599 64.7839C45.6699 64.7832 45.8564 64.7336 46.0194 64.635C46.1823 64.5364 46.3078 64.4007 46.3958 64.2277C46.4885 64.0547 46.5344 63.8562 46.5336 63.6322C46.5327 63.4082 46.4853 63.2124 46.3914 63.0447C46.302 62.8723 46.1755 62.7374 46.0118 62.64C45.8481 62.5379 45.6613 62.4872 45.4513 62.4879C45.2506 62.4886 45.0688 62.5383 44.9058 62.6368C44.7475 62.7354 44.622 62.8735 44.5294 63.0511C44.4414 63.2241 44.3978 63.4202 44.3986 63.6396C44.3994 63.8636 44.4445 64.0617 44.5339 64.2341C44.6278 64.4065 44.7543 64.5413 44.9134 64.6388C45.0771 64.7362 45.2593 64.7846 45.4599 64.7839ZM50.0542 65.6081C49.6809 65.6094 49.3399 65.5242 49.0312 65.3526C48.7273 65.181 48.4837 64.9462 48.3006 64.6481C48.1221 64.3501 48.0322 64.0097 48.0307 63.6271C48.0293 63.2444 48.1166 62.9034 48.2928 62.6042C48.4737 62.3049 48.7155 62.0684 49.0182 61.8947C49.3208 61.7209 49.6612 61.6334 50.0392 61.6321C50.4125 61.6309 50.7512 61.716 51.0551 61.8876C51.3591 62.0593 51.6004 62.2941 51.7788 62.5922C51.9619 62.8855 52.0542 63.2259 52.0557 63.6132C52.0571 63.9959 51.9674 64.3369 51.7865 64.6361C51.6057 64.9354 51.3639 65.1719 51.0612 65.3456C50.7585 65.5194 50.4229 65.6068 50.0542 65.6081ZM50.051 64.7681C50.2564 64.7674 50.4358 64.7178 50.5895 64.6193C50.7478 64.5207 50.8709 64.385 50.9589 64.212C51.0516 64.0343 51.0975 63.8358 51.0967 63.6165C51.0958 63.3925 51.0484 63.1967 50.9545 63.029C50.8651 62.8566 50.741 62.7217 50.5819 62.6243C50.4275 62.5221 50.2477 62.4714 50.0423 62.4721C49.8324 62.4729 49.6482 62.5248 49.4899 62.628C49.3316 62.7266 49.2062 62.8623 49.1135 63.0353C49.0254 63.2036 48.9819 63.3998 48.9827 63.6238C48.9835 63.8431 49.0286 64.0413 49.1179 64.2183C49.2119 64.3907 49.3384 64.5256 49.4975 64.623C49.6565 64.7205 49.841 64.7688 50.051 64.7681ZM54.2076 65.5938C53.8016 65.5952 53.4466 65.5008 53.1425 65.3105C52.8431 65.1155 52.6368 64.8525 52.5235 64.5216L53.2083 64.1902C53.3071 64.4046 53.4431 64.5721 53.6162 64.6928C53.794 64.8136 53.9902 64.8736 54.2049 64.8728C54.3729 64.8722 54.5057 64.8344 54.6034 64.7594C54.7012 64.6844 54.7498 64.5863 54.7493 64.4649C54.749 64.3903 54.7278 64.3297 54.6856 64.2832C54.6481 64.232 54.5943 64.1901 54.5242 64.1577C54.4587 64.1206 54.3862 64.0905 54.3068 64.0675L53.6832 63.8946C53.3608 63.8024 53.1153 63.6609 52.9466 63.4701C52.7825 63.2794 52.7 63.0533 52.699 62.792C52.6981 62.5587 52.7557 62.3555 52.8717 62.1824C52.9923 62.0046 53.1575 61.8664 53.3671 61.7677C53.5814 61.6689 53.8262 61.6191 54.1016 61.6182C54.4609 61.6169 54.7785 61.7022 55.0545 61.8739C55.3305 62.0456 55.5274 62.2876 55.6453 62.5998L54.9465 62.9313C54.8805 62.7588 54.7704 62.6215 54.616 62.5194C54.4616 62.4173 54.2887 62.3665 54.0974 62.3672C53.9434 62.3677 53.8222 62.4031 53.7338 62.4734C53.6454 62.5437 53.6014 62.6349 53.6018 62.7469C53.6021 62.8169 53.621 62.8775 53.6585 62.9287C53.696 62.9799 53.7475 63.0217 53.813 63.0542C53.8831 63.0866 53.9626 63.1166 54.0513 63.1443L54.661 63.3242C54.974 63.4165 55.2149 63.5557 55.3836 63.7418C55.557 63.9278 55.6442 64.1562 55.6452 64.4269C55.6461 64.6555 55.5862 64.8587 55.4655 65.0365C55.3448 65.2096 55.1773 65.3455 54.963 65.4442C54.7487 65.543 54.4969 65.5928 54.2076 65.5938ZM56.354 65.5024L56.3396 61.6945L57.2566 61.6913L57.271 65.4993L56.354 65.5024ZM56.3379 61.2675L56.3342 60.2875L57.2512 60.2843L57.2549 61.2643L56.3379 61.2675ZM59.8538 65.5324C59.4244 65.5339 59.0903 65.4183 58.8515 65.1858C58.6172 64.9486 58.4993 64.6154 58.4977 64.186L58.4913 62.506L57.8333 62.5083L57.8302 61.6893L57.9002 61.6891C58.0869 61.6884 58.2314 61.6389 58.3337 61.5406C58.436 61.4422 58.4868 61.2997 58.486 61.1131L58.4849 60.8191L59.4019 60.8159L59.4052 61.6839L60.2802 61.6809L60.2833 62.4999L59.4083 62.5029L59.4145 64.1339C59.415 64.2599 59.4364 64.3671 59.4787 64.4557C59.5257 64.5442 59.596 64.6116 59.6895 64.6579C59.7876 64.7043 59.9114 64.7272 60.0607 64.7267C60.0934 64.7265 60.1307 64.7241 60.1727 64.7193C60.2194 64.7144 60.2637 64.7096 60.3056 64.7048L60.3086 65.4888C60.2433 65.4984 60.1687 65.508 60.0847 65.5176C60.0008 65.5272 59.9238 65.5321 59.8538 65.5324ZM61.0092 65.4864L60.9948 61.6784L61.9118 61.6753L61.9262 65.4832L61.0092 65.4864ZM60.9932 61.2514L60.9895 60.2714L61.9065 60.2683L61.9102 61.2483L60.9932 61.2514ZM64.6352 65.5579C64.2618 65.5592 63.9209 65.474 63.6122 65.3024C63.3082 65.1308 63.0647 64.896 62.8815 64.5979C62.7031 64.2999 62.6131 63.9595 62.6117 63.5769C62.6102 63.1942 62.6976 62.8532 62.8738 62.554C63.0547 62.2547 63.2964 62.0182 63.5991 61.8445C63.9018 61.6708 64.2421 61.5832 64.6201 61.5819C64.9935 61.5807 65.3321 61.6658 65.6361 61.8374C65.9401 62.0091 66.1813 62.2439 66.3598 62.542C66.5429 62.8353 66.6352 63.1757 66.6366 63.563C66.6381 63.9457 66.5484 64.2867 66.3675 64.5859C66.1866 64.8852 65.9449 65.1217 65.6422 65.2954C65.3395 65.4692 65.0038 65.5566 64.6352 65.5579ZM64.632 64.7179C64.8373 64.7172 65.0168 64.6676 65.1704 64.5691C65.3287 64.4705 65.4519 64.3348 65.5399 64.1618C65.6326 63.9841 65.6785 63.7856 65.6777 63.5663C65.6768 63.3423 65.6294 63.1465 65.5354 62.9788C65.4461 62.8064 65.3219 62.6715 65.1629 62.5741C65.0085 62.4719 64.8286 62.4212 64.6233 62.4219C64.4133 62.4227 64.2292 62.4746 64.0709 62.5778C63.9126 62.6764 63.7871 62.8122 63.6944 62.9851C63.6064 63.1534 63.5628 63.3496 63.5637 63.5736C63.5645 63.7929 63.6096 63.9911 63.6989 64.1681C63.7929 64.3405 63.9194 64.4754 64.0784 64.5728C64.2375 64.6703 64.422 64.7186 64.632 64.7179ZM67.3393 65.4646L67.3248 61.6566L68.1858 61.6537L68.1887 62.4027L68.1182 62.2699C68.206 62.0409 68.35 61.8678 68.5502 61.7504C68.7551 61.6284 68.9929 61.5669 69.2635 61.566C69.5435 61.565 69.7911 61.6248 70.0062 61.7454C70.226 61.866 70.397 62.0357 70.5191 62.2546C70.6413 62.4689 70.7029 62.7183 70.704 63.003L70.7132 65.453L69.7962 65.4562L69.7878 63.2232C69.7872 63.0552 69.7539 62.9106 69.6882 62.7895C69.6224 62.6684 69.531 62.5754 69.4141 62.5104C69.3018 62.4408 69.1687 62.4063 69.0147 62.4068C68.8654 62.4073 68.7325 62.4428 68.6161 62.5132C68.4997 62.5789 68.409 62.6726 68.3442 62.7941C68.2793 62.9157 68.2472 63.0605 68.2478 63.2285L68.2562 65.4615L67.3393 65.4646ZM71.9226 65.4488L71.9189 64.4688L72.8429 64.4657L72.8466 65.4456L71.9226 65.4488ZM71.9119 62.6209L71.9082 61.6409L72.8322 61.6377L72.8359 62.6177L71.9119 62.6209Z" fill="white"/>
<path opacity="0.8" d="M31.8362 35.8634C31.5049 35.8645 31.1966 35.8049 30.9115 35.6845C30.631 35.5642 30.3877 35.397 30.1816 35.183C29.9801 34.9644 29.8321 34.7106 29.7377 34.4216L30.5274 34.0758C30.6545 34.3741 30.8374 34.6091 31.0761 34.781C31.3147 34.9481 31.5834 35.0312 31.882 35.0302C32.05 35.0296 32.1946 35.0034 32.3157 34.9517C32.4415 34.8953 32.5369 34.8203 32.6019 34.7267C32.6715 34.6331 32.7061 34.521 32.7056 34.3903C32.705 34.2364 32.6579 34.1105 32.5642 34.0128C32.4751 33.9105 32.3395 33.8316 32.1573 33.7762L31.1551 33.4577C30.7486 33.3331 30.4422 33.1451 30.2359 32.8938C30.0297 32.6426 29.9259 32.3466 29.9246 32.0059C29.9235 31.7072 29.9948 31.4433 30.1386 31.2142C30.2871 30.985 30.4917 30.8069 30.7526 30.6801C31.0181 30.5485 31.3212 30.4821 31.6618 30.4809C31.9745 30.4798 32.2617 30.5349 32.5235 30.646C32.7852 30.7524 33.0098 30.9033 33.1972 31.0986C33.3892 31.2893 33.5324 31.5152 33.6267 31.7762L32.8441 32.1289C32.7404 31.8679 32.5857 31.6677 32.3798 31.5285C32.1739 31.3845 31.9356 31.313 31.665 31.3139C31.5063 31.3145 31.3664 31.3429 31.2453 31.3994C31.1242 31.4511 31.0288 31.5261 30.9591 31.6243C30.8942 31.7179 30.8619 31.83 30.8624 31.9607C30.863 32.1053 30.9101 32.2335 31.0039 32.3452C31.0976 32.4522 31.2403 32.5357 31.4318 32.5957L32.392 32.8934C32.8078 33.0273 33.1188 33.2129 33.3251 33.4502C33.536 33.6875 33.6421 33.9811 33.6434 34.3311C33.6445 34.6298 33.5685 34.8937 33.4154 35.1229C33.2623 35.3521 33.0506 35.5325 32.7804 35.6641C32.5103 35.7957 32.1955 35.8621 31.8362 35.8634ZM31.5025 36.4805L31.4775 29.8656L32.0725 29.8635L32.0975 36.4785L31.5025 36.4805ZM34.3241 35.7708L34.3214 35.0498L35.7298 33.5679C36.0086 33.273 36.2224 33.0389 36.3711 32.8657C36.5244 32.6879 36.6312 32.5358 36.6914 32.4096C36.7516 32.2834 36.7814 32.155 36.7809 32.0243C36.7801 31.805 36.7094 31.6326 36.569 31.507C36.4332 31.3815 36.2579 31.3191 36.0433 31.3198C35.8193 31.3206 35.6258 31.3866 35.463 31.5178C35.3001 31.6444 35.1819 31.8315 35.1081 32.0791L34.2741 31.8229C34.3291 31.5474 34.4425 31.309 34.6144 31.1078C34.7863 30.9018 34.9957 30.7448 35.2427 30.6366C35.4942 30.5237 35.76 30.4668 36.04 30.4658C36.376 30.4647 36.6703 30.5243 36.9227 30.6448C37.1798 30.7653 37.3788 30.9349 37.5196 31.1538C37.6651 31.3726 37.7384 31.629 37.7395 31.923C37.7403 32.1097 37.706 32.2941 37.6366 32.4764C37.5673 32.6586 37.463 32.8456 37.3238 33.0374C37.1845 33.2246 37.0033 33.4352 36.7801 33.6693L35.56 34.9615L37.821 34.9537L37.8241 35.7587L34.3241 35.7708ZM40.3911 35.8339C40.0131 35.8352 39.6839 35.7663 39.4033 35.6273C39.1275 35.4836 38.9121 35.2907 38.7571 35.0485C38.6069 34.8064 38.5312 34.5406 38.5301 34.2513C38.5288 33.9106 38.6187 33.6233 38.7999 33.3894C38.981 33.1507 39.244 32.9748 39.5889 32.8616L39.5337 33.0928C39.2861 33.0144 39.0895 32.861 38.944 32.6329C38.8031 32.4047 38.7322 32.1529 38.7311 31.8776C38.7301 31.6023 38.7992 31.357 38.9384 31.1419C39.0775 30.9267 39.2706 30.7581 39.5175 30.6359C39.7643 30.5137 40.0488 30.452 40.3708 30.4509C40.6881 30.4498 40.9683 30.5095 41.2114 30.63C41.4592 30.7505 41.6535 30.9179 41.7943 31.132C41.9398 31.3462 42.0131 31.591 42.0141 31.8663C42.0152 32.1463 41.9438 32.4009 41.8 32.63C41.6609 32.8545 41.4678 33.0092 41.2208 33.094L41.1708 32.8492C41.5166 32.9693 41.781 33.1481 41.9639 33.3855C42.1468 33.6182 42.2388 33.9049 42.2401 34.2455C42.2412 34.5349 42.1652 34.8011 42.0121 35.0443C41.8637 35.2828 41.6498 35.4749 41.3703 35.6205C41.0955 35.7615 40.7691 35.8326 40.3911 35.8339ZM40.3881 35.0289C40.5701 35.0283 40.7286 34.9951 40.8637 34.9293C40.9988 34.8588 41.1034 34.7628 41.1776 34.6412C41.2518 34.5149 41.2886 34.3725 41.288 34.2138C41.2874 34.0505 41.2495 33.9106 41.1744 33.7942C41.0993 33.6731 40.9939 33.5801 40.8584 33.5153C40.7228 33.4457 40.564 33.4113 40.382 33.4119C40.2 33.4125 40.0414 33.4481 39.9064 33.5186C39.7759 33.5843 39.6736 33.678 39.5994 33.7996C39.5252 33.9165 39.4884 34.0567 39.489 34.22C39.4896 34.3787 39.5275 34.5209 39.6026 34.6466C39.6777 34.7677 39.7808 34.863 39.9117 34.9325C40.0473 34.9974 40.2061 35.0295 40.3881 35.0289ZM40.3789 32.6069C40.5142 32.6065 40.6331 32.5757 40.7356 32.5147C40.838 32.4537 40.917 32.3741 40.9727 32.2759C41.0329 32.173 41.0628 32.0562 41.0623 31.9256C41.0618 31.7949 41.0311 31.6807 40.97 31.5829C40.9137 31.4804 40.834 31.4014 40.7311 31.3457C40.6282 31.2854 40.5091 31.2555 40.3738 31.2559C40.2385 31.2564 40.1173 31.2872 40.0101 31.3482C39.9077 31.4045 39.8263 31.4842 39.766 31.587C39.7104 31.6852 39.6829 31.7996 39.6833 31.9303C39.6838 32.061 39.7123 32.1775 39.7687 32.28C39.8297 32.3778 39.9117 32.4569 40.0146 32.5172C40.1221 32.5775 40.2436 32.6074 40.3789 32.6069ZM44.7159 35.819C44.3613 35.8202 44.046 35.7467 43.7701 35.5983C43.4989 35.4452 43.2857 35.2406 43.1308 34.9845C42.9758 34.7237 42.8977 34.4276 42.8964 34.0963C42.8958 33.9283 42.9115 33.7602 42.9435 33.5921C42.9802 33.424 43.0449 33.2441 43.1375 33.0524C43.2347 32.8608 43.3739 32.6479 43.5551 32.414L45.0039 30.519L46.1379 30.5151L44.3755 32.7962L44.2209 32.6287C44.286 32.5771 44.3535 32.5372 44.4234 32.509C44.4933 32.4761 44.5632 32.4525 44.6332 32.4383C44.7078 32.424 44.7847 32.4168 44.8641 32.4165C45.1814 32.4154 45.464 32.4868 45.7119 32.6306C45.9598 32.7744 46.1542 32.972 46.2951 33.2236C46.4407 33.4704 46.5141 33.7501 46.5153 34.0628C46.5166 34.3988 46.4407 34.7001 46.2877 34.9666C46.1347 35.2285 45.9208 35.4369 45.6461 35.5918C45.376 35.7421 45.0659 35.8178 44.7159 35.819ZM44.7127 34.958C44.8714 34.9575 45.0136 34.922 45.1393 34.8516C45.2697 34.7764 45.3719 34.6711 45.4461 34.5355C45.5249 34.3999 45.564 34.2481 45.5634 34.0801C45.5627 33.9028 45.5225 33.7512 45.4427 33.6255C45.3675 33.4951 45.2668 33.3928 45.1405 33.3185C45.0142 33.2443 44.8694 33.2075 44.7061 33.208C44.5474 33.2086 44.4029 33.2464 44.2725 33.3215C44.1421 33.3966 44.0375 33.4997 43.9587 33.6306C43.8845 33.7569 43.8477 33.9087 43.8484 34.086C43.849 34.254 43.8869 34.4055 43.9621 34.5406C44.0419 34.6757 44.1473 34.7803 44.2783 34.8545C44.4092 34.9241 44.554 34.9586 44.7127 34.958ZM47.5377 36.8173L47.536 36.3623C47.6898 36.3244 47.8132 36.2517 47.9061 36.144C48.0037 36.041 48.0639 35.9008 48.0865 35.7234L47.6735 35.7248L47.6698 34.7448L48.5938 34.7417L48.5961 35.3437C48.5977 35.7543 48.5079 36.0836 48.3268 36.3316C48.1504 36.5795 47.8874 36.7414 47.5377 36.8173ZM51.9605 35.7101L51.9561 34.5621L49.5621 34.5703L49.5591 33.7723L51.8847 30.4953L52.8787 30.4919L52.8911 33.7609L53.6541 33.7582L53.6571 34.5562L52.8941 34.5589L52.8985 35.7068L51.9605 35.7101ZM50.2604 34.1129L50.0911 33.7705L51.9531 33.7641L51.9436 31.2441L52.1889 31.3203L50.2604 34.1129ZM55.9458 35.7804C55.6612 35.7813 55.3903 35.7309 55.1333 35.6292C54.8809 35.5227 54.6633 35.3741 54.4806 35.1834C54.3025 34.988 54.1803 34.7574 54.114 34.4917L54.9458 34.1948C55.0307 34.4325 55.1598 34.6141 55.3329 34.7395C55.506 34.8602 55.7093 34.9202 55.9426 34.9194C56.1293 34.9187 56.2901 34.8832 56.4252 34.8127C56.5649 34.7422 56.6742 34.6415 56.753 34.5106C56.8319 34.375 56.8709 34.2162 56.8702 34.0342C56.8696 33.8522 56.8293 33.6983 56.7495 33.5726C56.6743 33.4422 56.5666 33.3422 56.4264 33.2727C56.2861 33.2032 56.1203 33.1687 55.929 33.1694C55.8403 33.1697 55.747 33.1794 55.6491 33.1984C55.5558 33.2173 55.4719 33.2456 55.3974 33.2832L55.1787 32.829L56.5238 31.2843L54.3959 31.2917L54.3928 30.4867L57.5918 30.4757L57.5946 31.2247L56.2426 32.8183L56.2553 32.4613C56.568 32.4649 56.8412 32.5316 57.0751 32.6614C57.3089 32.7913 57.4916 32.9704 57.6231 33.1986C57.7546 33.4268 57.821 33.6949 57.8221 34.0029C57.8234 34.3389 57.7429 34.6425 57.5806 34.9137C57.4183 35.1803 57.195 35.3911 56.911 35.546C56.6269 35.701 56.3052 35.7791 55.9458 35.7804ZM60.3861 35.7651C60.0081 35.7664 59.6789 35.6975 59.3983 35.5585C59.1224 35.4148 58.9071 35.2218 58.7521 34.9797C58.6019 34.7375 58.5262 34.4718 58.5251 34.1825C58.5238 33.8418 58.6137 33.5545 58.7949 33.3205C58.976 33.0819 59.239 32.906 59.5839 32.7928L59.5287 33.024C59.2811 32.9455 59.0845 32.7922 58.939 32.564C58.7981 32.3358 58.7272 32.0841 58.7261 31.8088C58.7251 31.5334 58.7942 31.2882 58.9334 31.073C59.0725 30.8579 59.2656 30.6892 59.5124 30.567C59.7593 30.4449 60.0438 30.3832 60.3658 30.3821C60.6831 30.381 60.9633 30.4407 61.2064 30.5612C61.4542 30.6817 61.6485 30.849 61.7893 31.0632C61.9348 31.2774 62.0081 31.5221 62.0091 31.7975C62.0102 32.0775 61.9388 32.332 61.795 32.5612C61.6559 32.7857 61.4628 32.9403 61.2158 33.0252L61.1658 32.7804C61.5116 32.9005 61.776 33.0793 61.9589 33.3166C62.1417 33.5493 62.2338 33.836 62.2351 34.1767C62.2362 34.466 62.1602 34.7323 62.0071 34.9755C61.8587 35.214 61.6448 35.4061 61.3653 35.5517C61.0905 35.6926 60.7641 35.7638 60.3861 35.7651ZM60.3831 34.9601C60.5651 34.9594 60.7236 34.9262 60.8587 34.8604C60.9938 34.79 61.0984 34.6939 61.1726 34.5724C61.2468 34.4461 61.2836 34.3036 61.283 34.145C61.2824 33.9816 61.2445 33.8418 61.1694 33.7254C61.0943 33.6043 60.9889 33.5113 60.8533 33.4464C60.7178 33.3769 60.559 33.3425 60.377 33.3431C60.195 33.3437 60.0364 33.3793 59.9014 33.4497C59.7709 33.5155 59.6686 33.6092 59.5944 33.7308C59.5202 33.8477 59.4834 33.9878 59.484 34.1512C59.4846 34.3098 59.5225 34.452 59.5976 34.5778C59.6727 34.6989 59.7758 34.7942 59.9067 34.8637C60.0423 34.9286 60.2011 34.9607 60.3831 34.9601ZM60.3739 32.5381C60.5092 32.5376 60.6281 32.5069 60.7306 32.4459C60.833 32.3848 60.912 32.3052 60.9677 32.207C61.0279 32.1042 61.0578 31.9874 61.0573 31.8567C61.0568 31.7261 61.0261 31.6118 60.965 31.5141C60.9087 31.4116 60.829 31.3325 60.7261 31.2769C60.6232 31.2166 60.5041 31.1866 60.3688 31.1871C60.2335 31.1876 60.1122 31.2183 60.0051 31.2794C59.9027 31.3357 59.8213 31.4153 59.761 31.5182C59.7054 31.6164 59.6779 31.7308 59.6783 31.8615C59.6788 31.9921 59.7073 32.1087 59.7637 32.2112C59.8247 32.309 59.9067 32.388 60.0096 32.4483C60.1171 32.5086 60.2386 32.5386 60.3739 32.5381ZM63.4576 35.6705L63.4539 34.6905L64.3779 34.6873L64.3816 35.6673L63.4576 35.6705ZM66.2139 35.661L66.1972 31.258L65.1892 31.2615L65.1861 30.4495L67.1461 30.4428L67.1659 35.6577L66.2139 35.661ZM68.3301 35.6537L70.4834 31.2363L68.0264 31.2447L68.0234 30.4397L71.4814 30.4278L71.4844 31.2328L69.3801 35.6501L68.3301 35.6537Z" fill="white"/>
<path opacity="0.8" d="M30.9915 78.3445L30.9864 76.9865L29.6284 76.9912L29.6254 76.2002L30.9834 76.1955L30.9783 74.8445L31.7693 74.8418L31.7744 76.1928L33.1254 76.1882L33.1284 76.9792L31.7774 76.9838L31.7825 78.3418L30.9915 78.3445ZM37.305 78.4068C36.9737 78.4079 36.6655 78.3483 36.3804 78.228C36.0999 78.1076 35.8566 77.9404 35.6505 77.7265C35.449 77.5078 35.301 77.254 35.2066 76.965L35.9963 76.6193C36.1234 76.9175 36.3063 77.1525 36.5449 77.3244C36.7836 77.4916 37.0522 77.5746 37.3509 77.5736C37.5189 77.573 37.6635 77.5469 37.7846 77.4951C37.9104 77.4387 38.0058 77.3637 38.0708 77.2701C38.1404 77.1766 38.175 77.0644 38.1745 76.9338C38.1739 76.7798 38.1268 76.6539 38.0331 76.5563C37.944 76.4539 37.8084 76.375 37.6262 76.3197L36.6239 76.0011C36.2175 75.8765 35.9111 75.6886 35.7048 75.4373C35.4985 75.186 35.3947 74.89 35.3934 74.5493C35.3923 74.2507 35.4636 73.9868 35.6074 73.7576C35.7559 73.5284 35.9606 73.3504 36.2214 73.2235C36.4869 73.0919 36.79 73.0255 37.1307 73.0244C37.4434 73.0233 37.7306 73.0783 37.9923 73.1894C38.2541 73.2958 38.4786 73.4467 38.666 73.6421C38.8581 73.8327 39.0013 74.0586 39.0956 74.3196L38.3129 74.6723C38.2093 74.4113 38.0545 74.2112 37.8487 74.0719C37.6428 73.9279 37.4045 73.8564 37.1338 73.8573C36.9752 73.8579 36.8353 73.8864 36.7142 73.9428C36.593 73.9945 36.4976 74.0695 36.428 74.1678C36.363 74.2613 36.3308 74.3734 36.3313 74.5041C36.3318 74.6488 36.379 74.7769 36.4727 74.8886C36.5665 74.9956 36.7091 75.0791 36.9007 75.1392L37.8608 75.4369C38.2767 75.5708 38.5877 75.7564 38.7939 75.9936C39.0048 76.2309 39.1109 76.5246 39.1123 76.8746C39.1134 77.1732 39.0374 77.4371 38.8843 77.6663C38.7311 77.8955 38.5195 78.0759 38.2493 78.2075C37.9791 78.3391 37.6644 78.4055 37.305 78.4068ZM36.9714 79.0239L36.9464 72.409L37.5414 72.4069L37.5664 79.0219L36.9714 79.0239ZM41.5222 78.3923C41.2376 78.3932 40.9667 78.3428 40.7097 78.2411C40.4573 78.1346 40.2397 77.986 40.057 77.7953C39.8789 77.5999 39.7567 77.3693 39.6904 77.1036L40.5222 76.8067C40.6071 77.0444 40.7362 77.226 40.9093 77.3514C41.0824 77.4721 41.2857 77.5321 41.519 77.5313C41.7057 77.5306 41.8665 77.4951 42.0016 77.4246C42.1413 77.3541 42.2506 77.2534 42.3295 77.1225C42.4083 76.9869 42.4473 76.8281 42.4466 76.6461C42.446 76.4641 42.4057 76.3102 42.3259 76.1845C42.2507 76.0541 42.143 75.9541 42.0028 75.8846C41.8625 75.8151 41.6967 75.7806 41.5054 75.7813C41.4167 75.7816 41.3234 75.7913 41.2255 75.8103C41.1322 75.8293 41.0483 75.8575 40.9738 75.8951L40.7551 75.4409L42.1002 73.8962L39.9723 73.9036L39.9692 73.0986L43.1682 73.0876L43.171 73.8366L41.819 75.4302L41.8317 75.0732C42.1444 75.0768 42.4176 75.1435 42.6515 75.2734C42.8853 75.4032 43.068 75.5823 43.1995 75.8105C43.331 76.0387 43.3974 76.3068 43.3985 76.6148C43.3998 76.9508 43.3193 77.2544 43.157 77.5256C42.9947 77.7922 42.7715 78.003 42.4874 78.1579C42.2033 78.3129 41.8816 78.391 41.5222 78.3923ZM44.4753 79.3901L44.4736 78.9351C44.6275 78.8972 44.7509 78.8245 44.8438 78.7168C44.9414 78.6138 45.0015 78.4736 45.0242 78.2962L44.6112 78.2976L44.6075 77.3176L45.5315 77.3145L45.5338 77.9165C45.5353 78.3271 45.4456 78.6564 45.2645 78.9044C45.0881 79.1523 44.8251 79.3142 44.4753 79.3901ZM48.3315 78.3688C48.0561 78.3698 47.7923 78.3193 47.5399 78.2175C47.2922 78.1157 47.0769 77.9718 46.8942 77.7858C46.7162 77.595 46.594 77.3691 46.5277 77.108L47.3526 76.8112C47.4328 77.0489 47.5618 77.2258 47.7396 77.3419C47.9173 77.4532 48.1135 77.5086 48.3282 77.5078C48.5055 77.5072 48.6617 77.4693 48.7968 77.3942C48.9365 77.3144 49.0434 77.2067 49.1176 77.0711C49.1917 76.9309 49.2284 76.7697 49.2277 76.5877C49.227 76.4057 49.1868 76.2472 49.1069 76.1121C49.0317 75.9771 48.9264 75.8724 48.7907 75.7982C48.6551 75.7194 48.4986 75.6802 48.3213 75.6808C48.1393 75.6815 47.9738 75.7217 47.8247 75.8016C47.6804 75.8814 47.5758 75.9961 47.511 76.1456L46.7334 75.9733L47.1354 73.0739L49.9774 73.0641L49.9804 73.8691L47.5165 73.8776L47.8719 73.4634L47.5862 75.6484L47.3123 75.4253C47.4423 75.2335 47.6004 75.093 47.7867 75.0037C47.9777 74.9144 48.2086 74.8692 48.4792 74.8683C48.8245 74.8671 49.1235 74.9407 49.3761 75.0892C49.6333 75.2377 49.8324 75.44 49.9734 75.6962C50.1143 75.9523 50.1855 76.2484 50.1867 76.5844C50.188 76.9204 50.1075 77.224 49.9452 77.4953C49.7829 77.7665 49.562 77.9796 49.2826 78.1346C49.0032 78.2895 48.6861 78.3676 48.3315 78.3688ZM53.2048 78.268L53.2004 77.1201L50.8064 77.1283L50.8034 76.3303L53.129 73.0533L54.123 73.0499L54.1354 76.3188L54.8984 76.3162L54.9014 77.1142L54.1384 77.1168L54.1427 78.2648L53.2048 78.268ZM51.5047 76.6709L51.3354 76.3285L53.1974 76.3221L53.1879 73.8021L53.4331 73.8782L51.5047 76.6709ZM55.6428 78.2597L57.7961 73.8422L55.3391 73.8507L55.3361 73.0457L58.7941 73.0338L58.7971 73.8388L56.6928 78.256L55.6428 78.2597Z" fill="#43BC17"/>
<path opacity="0.46" d="M30.8814 47.26L31.0653 45.9013L29.7003 45.906L29.8093 45.1146L31.1743 45.1099L31.3582 43.7583L32.1492 43.7556L31.9653 45.1072L33.3093 45.1026L33.2002 45.894L31.8563 45.8986L31.6724 47.2572L30.8814 47.26ZM34.7745 47.2466L35.3808 42.8414L34.3798 42.8449L34.4887 42.0325L36.4487 42.0258L35.7405 47.2432L34.7745 47.2466ZM37.5977 47.2368L38.204 42.8317L37.203 42.8352L37.312 42.0228L39.272 42.016L38.5637 47.2335L37.5977 47.2368ZM39.7951 48.3213L39.8494 47.8731C40.0172 47.8352 40.1569 47.7624 40.2685 47.6546C40.3801 47.5469 40.4613 47.4043 40.5119 47.2268L40.0849 47.2283L40.2142 46.2478L41.1452 46.2446L41.0498 46.917C40.9998 47.2951 40.868 47.6036 40.6542 47.8423C40.4405 48.0857 40.1541 48.2454 39.7951 48.3213ZM44.3372 47.2976C43.9545 47.299 43.6228 47.2068 43.3421 47.0211C43.0614 46.8354 42.8434 46.5724 42.6881 46.2323C42.5375 45.8922 42.4613 45.4911 42.4596 45.0291C42.458 44.6184 42.5079 44.2263 42.6091 43.8526C42.715 43.4789 42.8701 43.147 43.0744 42.857C43.2786 42.5669 43.5251 42.3374 43.8138 42.1684C44.1071 41.9994 44.4381 41.9143 44.8068 41.913C45.1895 41.9117 45.5212 42.0039 45.8019 42.1896C46.0826 42.3753 46.2982 42.6382 46.4488 42.9783C46.6041 43.3138 46.6826 43.7102 46.6843 44.1675C46.6859 44.5782 46.6337 44.9727 46.5278 45.3511C46.4266 45.7248 46.2738 46.0566 46.0696 46.3467C45.87 46.6367 45.6236 46.8685 45.3302 47.0422C45.0368 47.2112 44.7058 47.2964 44.3372 47.2976ZM44.3549 46.4296C44.6069 46.4287 44.8213 46.358 44.9981 46.2174C45.1749 46.0721 45.3165 45.8849 45.423 45.6559C45.5294 45.4222 45.6078 45.1723 45.6581 44.9061C45.7085 44.6399 45.7332 44.3878 45.7323 44.1498C45.7306 43.7158 45.6477 43.3801 45.4835 43.1427C45.3239 42.9005 45.0901 42.78 44.7821 42.7811C44.5488 42.7819 44.346 42.8479 44.1738 42.9792C44.0017 43.1104 43.8577 43.2859 43.7418 43.5057C43.6306 43.7207 43.5475 43.9637 43.4926 44.2345C43.4376 44.5007 43.4106 44.7715 43.4116 45.0468C43.4127 45.3361 43.4487 45.5857 43.5195 45.7954C43.5949 46.0005 43.7029 46.1588 43.8433 46.2703C43.9837 46.3772 44.1542 46.4303 44.3549 46.4296ZM49.0265 47.2815C48.6765 47.2827 48.3683 47.2208 48.1018 47.0957C47.84 46.9706 47.6364 46.7963 47.4908 46.5728C47.3453 46.3493 47.2721 46.0999 47.271 45.8245C47.2701 45.5819 47.3206 45.36 47.4225 45.159C47.5291 44.958 47.6731 44.7848 47.8545 44.6395C48.0406 44.4895 48.2502 44.3792 48.4833 44.3083L48.4072 44.5396C48.1922 44.4704 48.0237 44.3379 47.9017 44.1423C47.7842 43.9468 47.7251 43.723 47.7241 43.471C47.723 43.1816 47.799 42.9177 47.9521 42.6792C48.1099 42.4406 48.3238 42.2509 48.594 42.11C48.8641 41.969 49.1695 41.898 49.5102 41.8968C49.8088 41.8958 50.0704 41.9509 50.2948 42.0621C50.5239 42.1686 50.7018 42.3174 50.8285 42.5083C50.9599 42.6945 51.026 42.9136 51.027 43.1656C51.0278 43.3709 50.9865 43.5671 50.9032 43.754C50.8246 43.9363 50.7155 44.0977 50.576 44.2381C50.4365 44.374 50.2759 44.4748 50.0942 44.5408L50.0653 44.2959C50.3643 44.4069 50.5936 44.5648 50.753 44.7695C50.9172 44.9743 50.9998 45.2284 51.0009 45.5317C51.0021 45.8444 50.9215 46.134 50.7592 46.4005C50.5969 46.6624 50.369 46.8755 50.0756 47.0399C49.7822 47.1996 49.4325 47.2801 49.0265 47.2815ZM49.0515 46.4764C49.2475 46.4757 49.42 46.4355 49.569 46.3556C49.7227 46.2758 49.8413 46.168 49.9248 46.0324C50.0083 45.8968 50.0497 45.745 50.0491 45.577C50.0483 45.3576 49.9729 45.1829 49.8231 45.0527C49.6733 44.9226 49.4724 44.8579 49.2204 44.8588C49.029 44.8595 48.8589 44.8997 48.7098 44.9796C48.5608 45.0548 48.4422 45.1602 48.354 45.2958C48.2705 45.4314 48.2291 45.5856 48.2298 45.7582C48.2306 45.9729 48.3036 46.1476 48.4488 46.2825C48.5986 46.4126 48.7995 46.4773 49.0515 46.4764ZM49.2943 44.0536C49.4483 44.053 49.5812 44.0199 49.693 43.9542C49.8094 43.8838 49.9 43.7901 49.9649 43.6732C50.0298 43.5564 50.062 43.4279 50.0614 43.2879C50.0608 43.1152 50.0043 42.9754 49.8919 42.8685C49.7794 42.7569 49.6275 42.7014 49.4362 42.7021C49.2916 42.7026 49.161 42.7357 49.0446 42.8014C48.9282 42.8671 48.8352 42.9585 48.7656 43.0754C48.7007 43.1876 48.6685 43.3137 48.6691 43.4537C48.6697 43.6264 48.7263 43.7708 48.8387 43.8871C48.9558 43.9987 49.1077 44.0542 49.2943 44.0536ZM52.3147 47.1862L57.251 41.9542L58.231 41.9508L53.2947 47.1828L52.3147 47.1862ZM53.488 44.6131C53.236 44.614 53.0118 44.5588 52.8154 44.4474C52.6236 44.3361 52.4714 44.185 52.3586 43.994C52.2506 43.7984 52.1961 43.5839 52.1952 43.3506C52.1942 43.0846 52.2586 42.8417 52.3885 42.6219C52.5229 42.3974 52.7019 42.2195 52.9254 42.088C53.1489 41.9519 53.396 41.8834 53.6667 41.8825C53.9093 41.8817 54.1265 41.9369 54.3183 42.0482C54.5147 42.1596 54.667 42.3107 54.775 42.5017C54.8877 42.6926 54.9446 42.9071 54.9455 43.1451C54.9465 43.4111 54.8797 43.6563 54.7452 43.8808C54.6154 44.1006 54.4387 44.2785 54.2153 44.4146C53.9964 44.546 53.754 44.6122 53.488 44.6131ZM53.5343 43.906C53.665 43.9055 53.7815 43.8724 53.884 43.8068C53.9864 43.7411 54.0654 43.6545 54.121 43.5469C54.1812 43.4347 54.2111 43.318 54.2106 43.1966C54.2102 43.0893 54.1865 42.9914 54.1395 42.9029C54.0925 42.8097 54.0246 42.7329 53.9357 42.6726C53.8514 42.6122 53.744 42.5822 53.6133 42.5827C53.4827 42.5831 53.3661 42.6185 53.2637 42.6889C53.1613 42.7546 53.08 42.8412 53.0197 42.9487C52.9594 43.0563 52.9295 43.173 52.93 43.299C52.9304 43.4017 52.9541 43.4996 53.0011 43.5928C53.0482 43.686 53.1161 43.7627 53.205 43.8231C53.2986 43.8788 53.4083 43.9064 53.5343 43.906ZM56.858 47.2545C56.6153 47.2554 56.3958 47.2001 56.1994 47.0888C56.003 46.9775 55.8484 46.8263 55.7357 46.6354C55.6276 46.4398 55.5731 46.2253 55.5722 45.992C55.5712 45.7213 55.6379 45.4761 55.7724 45.2563C55.907 45.0365 56.086 44.8608 56.3095 44.7294C56.5329 44.5933 56.7777 44.5248 57.0437 44.5239C57.291 44.523 57.5106 44.5783 57.7023 44.6896C57.8941 44.801 58.044 44.9521 58.152 45.1431C58.2648 45.334 58.3216 45.5485 58.3225 45.7865C58.3235 46.0525 58.2567 46.2977 58.1223 46.5222C57.9924 46.742 57.8158 46.9199 57.5923 47.056C57.3734 47.1874 57.1287 47.2536 56.858 47.2545ZM56.9113 46.5473C57.042 46.5469 57.1585 46.5138 57.261 46.4481C57.3634 46.3825 57.4424 46.2959 57.498 46.1883C57.5582 46.0761 57.5881 45.9593 57.5877 45.838C57.5873 45.7307 57.5635 45.6304 57.5165 45.5373C57.4695 45.4441 57.4016 45.3697 57.3127 45.314C57.2284 45.2536 57.1233 45.2236 56.9973 45.224C56.8667 45.2245 56.7478 45.2599 56.6407 45.3303C56.5383 45.396 56.457 45.4826 56.3967 45.5901C56.3411 45.6976 56.3136 45.8144 56.314 45.9404C56.3144 46.0477 56.3382 46.148 56.3852 46.2412C56.4322 46.3343 56.5001 46.4088 56.589 46.4645C56.6779 46.5202 56.7853 46.5478 56.9113 46.5473Z" fill="white"/>
<path opacity="0.46" d="M61.9422 78.3279L62.126 76.9693L60.7611 76.974L60.8701 76.1826L62.235 76.1779L62.4189 74.8263L63.2099 74.8236L63.026 76.1752L64.37 76.1706L64.261 76.962L62.917 76.9666L62.7332 78.3252L61.9422 78.3279ZM66.7876 78.3953C66.4936 78.3963 66.2204 78.3459 65.968 78.2441C65.7156 78.1376 65.505 77.989 65.3363 77.7983C65.1722 77.6028 65.0687 77.3722 65.0257 77.1063L65.8856 76.8094C65.9471 77.0471 66.0598 77.2288 66.2236 77.3542C66.3874 77.475 66.586 77.535 66.8193 77.5341C67.02 77.5335 67.1948 77.4932 67.3439 77.4133C67.4975 77.3288 67.6161 77.2141 67.6996 77.0691C67.7877 76.9241 67.8314 76.7583 67.8307 76.5717C67.83 76.4037 67.7945 76.2614 67.7241 76.145C67.6583 76.0286 67.5623 75.9402 67.4361 75.88C67.3098 75.8151 67.158 75.783 66.9807 75.7836C66.892 75.7839 66.7987 75.7959 66.7008 75.8195C66.6029 75.8385 66.5143 75.8645 66.4351 75.8975L66.2654 75.443L67.7786 73.8978L65.6366 73.9052L65.7385 73.0998L69.0005 73.0886L68.9053 73.8379L67.3924 75.4322L67.377 75.0752C67.671 75.0742 67.9233 75.1387 68.1337 75.2686C68.3442 75.3939 68.5059 75.5683 68.6187 75.7919C68.7362 76.0109 68.7955 76.2603 68.7966 76.5403C68.7976 76.811 68.7449 77.0608 68.6384 77.2899C68.5319 77.5189 68.3833 77.7154 68.1926 77.8794C68.0066 78.0387 67.7924 78.1655 67.5501 78.2596C67.3124 78.3491 67.0582 78.3943 66.7876 78.3953ZM69.4955 79.3939L69.5498 78.9458C69.7177 78.9078 69.8574 78.835 69.969 78.7273C70.0806 78.6196 70.1617 78.477 70.2124 78.2995L69.7854 78.3009L69.9147 77.3205L70.8456 77.3173L70.7502 77.9896C70.7003 78.3678 70.5685 78.6762 70.3547 78.915C70.1409 79.1584 69.8545 79.318 69.4955 79.3939ZM71.8673 78.2938L74.6646 73.8671L72.2496 73.8754L72.3515 73.0701L75.8095 73.0582L75.7146 73.8635L72.9873 78.2899L71.8673 78.2938ZM77.1998 78.3594C76.8825 78.3605 76.5975 78.2962 76.345 78.1664C76.0925 78.0319 75.8935 77.8482 75.748 77.6154C75.6024 77.3779 75.529 77.1005 75.5278 76.7832C75.5269 76.5312 75.568 76.2954 75.6511 76.0757C75.7343 75.8561 75.8409 75.6527 75.9708 75.4656C76.1054 75.2738 76.2401 75.0984 76.3748 74.9392L78.0127 73.0576L79.2097 73.0535L77.2023 75.3354L77.0127 75.168C77.0872 75.1165 77.1594 75.0765 77.2293 75.0483C77.2991 75.0154 77.3714 74.9918 77.446 74.9776C77.5253 74.9633 77.6069 74.956 77.6909 74.9557C77.9662 74.9548 78.2161 75.0169 78.4406 75.1421C78.6651 75.2674 78.8431 75.4441 78.9746 75.6723C79.1061 75.8958 79.1725 76.1593 79.1736 76.4626C79.175 76.8173 79.0875 77.1372 78.9113 77.4225C78.735 77.7078 78.4979 77.9349 78.1998 78.104C77.9065 78.273 77.5731 78.3581 77.1998 78.3594ZM77.2595 77.4982C77.4369 77.4976 77.5977 77.4527 77.742 77.3635C77.8863 77.2744 78.0002 77.155 78.0837 77.0054C78.1718 76.8557 78.2155 76.6922 78.2148 76.5149C78.2139 76.2816 78.1386 76.0952 77.9887 75.9557C77.8435 75.8162 77.6612 75.7468 77.4419 75.7476C77.2599 75.7482 77.0967 75.7931 76.9524 75.8823C76.8081 75.9714 76.6919 76.0908 76.6038 76.2405C76.5203 76.3854 76.4789 76.5489 76.4796 76.7309C76.4805 76.9642 76.5535 77.1506 76.6987 77.2901C76.8486 77.4296 77.0355 77.499 77.2595 77.4982ZM80.4087 78.2644L85.345 73.0323L86.325 73.029L81.3887 78.261L80.4087 78.2644ZM81.582 75.6913C81.33 75.6922 81.1058 75.637 80.9094 75.5256C80.7176 75.4143 80.5654 75.2631 80.4527 75.0722C80.3446 74.8766 80.2901 74.6621 80.2892 74.4288C80.2882 74.1628 80.3526 73.9199 80.4825 73.7001C80.6169 73.4756 80.7959 73.2977 81.0194 73.1662C81.2429 73.0301 81.49 72.9616 81.7607 72.9607C82.0033 72.9599 82.2205 73.0151 82.4123 73.1264C82.6087 73.2378 82.761 73.3889 82.869 73.5799C82.9817 73.7708 83.0386 73.9853 83.0395 74.2233C83.0405 74.4893 82.9737 74.7345 82.8392 74.959C82.7094 75.1788 82.5327 75.3567 82.3093 75.4928C82.0904 75.6242 81.848 75.6904 81.582 75.6913ZM81.6283 74.9842C81.759 74.9837 81.8755 74.9506 81.978 74.8849C82.0804 74.8193 82.1594 74.7327 82.215 74.6251C82.2752 74.5129 82.3051 74.3962 82.3046 74.2748C82.3042 74.1675 82.2805 74.0696 82.2335 73.9811C82.1865 73.8879 82.1186 73.8111 82.0297 73.7508C81.9454 73.6904 81.838 73.6604 81.7073 73.6609C81.5767 73.6613 81.4601 73.6967 81.3577 73.7671C81.2553 73.8328 81.174 73.9194 81.1137 74.0269C81.0534 74.1345 81.0236 74.2512 81.024 74.3772C81.0244 74.4799 81.0481 74.5778 81.0951 74.671C81.1422 74.7642 81.2101 74.8409 81.299 74.9013C81.3926 74.957 81.5023 74.9846 81.6283 74.9842ZM84.952 78.3327C84.7094 78.3336 84.4898 78.2783 84.2934 78.167C84.097 78.0557 83.9424 77.9045 83.8297 77.7136C83.7216 77.518 83.6671 77.3035 83.6662 77.0702C83.6652 76.7995 83.7319 76.5543 83.8665 76.3345C84.001 76.1147 84.18 75.939 84.4035 75.8076C84.6269 75.6715 84.8717 75.603 85.1377 75.6021C85.385 75.6012 85.6046 75.6565 85.7963 75.7678C85.9881 75.8792 86.138 76.0303 86.246 76.2213C86.3588 76.4122 86.4156 76.6267 86.4165 76.8647C86.4175 77.1307 86.3507 77.3759 86.2163 77.6004C86.0864 77.8202 85.9098 77.9981 85.6863 78.1342C85.4674 78.2656 85.2227 78.3318 84.952 78.3327ZM85.0053 77.6255C85.136 77.6251 85.2526 77.592 85.355 77.5263C85.4574 77.4607 85.5364 77.374 85.592 77.2665C85.6522 77.1543 85.6821 77.0375 85.6817 76.9162C85.6813 76.8089 85.6575 76.7086 85.6105 76.6155C85.5635 76.5223 85.4956 76.4478 85.4067 76.3922C85.3225 76.3318 85.2173 76.3018 85.0913 76.3022C84.9607 76.3027 84.8418 76.3381 84.7347 76.4085C84.6323 76.4742 84.551 76.5608 84.4907 76.6683C84.4351 76.7758 84.4076 76.8926 84.408 77.0186C84.4084 77.1259 84.4322 77.2262 84.4792 77.3194C84.5262 77.4125 84.5941 77.487 84.683 77.5427C84.7719 77.5983 84.8793 77.626 85.0053 77.6255Z" fill="white"/>
<path d="M153.295 21.5114C166.978 21.5059 178.058 32.5796 178.051 46.2367C178.044 59.894 166.953 70.9775 153.27 70.983C139.587 70.9885 128.507 59.914 128.514 46.2567C128.521 32.5995 139.612 21.5169 153.295 21.5114Z" stroke="#637C63" stroke-opacity="0.2" stroke-width="7"/>
</g>
</svg>
