<svg width="117" height="20" viewBox="0 0 117 20" fill="none" xmlns="http://www.w3.org/2000/svg">
<g opacity="0.75">
<path d="M18.0927 10.074C18.0556 4.61111 22.4541 0.17408 27.9171 0.163623L100.688 0.0243398C106.151 0.0138836 110.609 4.43396 110.647 9.89686C110.684 15.3598 106.285 19.7968 100.822 19.8072L28.0517 19.9465C22.5887 19.957 18.1299 15.5369 18.0927 10.074Z" fill="#848484" fill-opacity="0.2"/>
<path opacity="0.76" d="M48.5594 13.9665L50.733 10.5873L48.5329 7.26165L49.9369 7.2589L51.737 9.98234L51.089 9.98361L52.8439 7.25319L54.2479 7.25043L52.101 10.5846L54.3104 13.9553L52.9064 13.958L51.097 11.1986L51.745 11.1973L49.9634 13.9638L48.5594 13.9665ZM54.5096 13.9549L56.7781 7.24547L58.3621 7.24236L60.7195 13.9427L59.3875 13.9453L58.901 12.5063L56.309 12.5113L55.8326 13.9523L54.5096 13.9549ZM56.6528 11.4307L58.5428 11.427L57.4047 8.09023L57.7467 8.08956L56.6528 11.4307ZM63.8737 14.0445C63.3577 14.0455 62.898 13.9384 62.4946 13.7232C62.0971 13.508 61.7831 13.2116 61.5526 12.834C61.3221 12.4565 61.2053 12.0277 61.2021 11.5477L61.1735 7.23684L62.3975 7.23444L62.4257 11.4823C62.4275 11.7583 62.4892 12.0072 62.6106 12.229C62.7381 12.4507 62.9103 12.6244 63.1271 12.75C63.3439 12.8695 63.5903 12.929 63.8663 12.9285C64.1483 12.9279 64.3939 12.8675 64.6031 12.7471C64.8183 12.6206 64.9851 12.4463 65.1036 12.2241C65.2282 12.0018 65.2895 11.7527 65.2877 11.4767L65.2595 7.22882L66.4835 7.22641L66.5121 11.5373C66.5153 12.0173 66.4041 12.4465 66.1786 12.825C65.9531 13.2034 65.6401 13.501 65.2395 13.7178C64.845 13.9346 64.3897 14.0435 63.8737 14.0445ZM70.3336 14.0318C69.8176 14.0328 69.3579 13.9257 68.9545 13.7105C68.5571 13.4953 68.2431 13.1989 68.0126 12.8214C67.7821 12.4438 67.6652 12.0151 67.6621 11.5351L67.6335 7.22416L68.8575 7.22175L68.8856 11.4697C68.8875 11.7457 68.9491 11.9945 69.0706 12.2163C69.1981 12.438 69.3702 12.6117 69.5871 12.7373C69.8038 12.8568 70.0502 12.9164 70.3262 12.9158C70.6082 12.9153 70.8538 12.8548 71.063 12.7344C71.2782 12.608 71.4451 12.4336 71.5636 12.2114C71.6881 11.9892 71.7495 11.74 71.7476 11.464L71.7195 7.21614L72.9434 7.21373L72.972 11.5246C72.9752 12.0046 72.8641 12.4338 72.6386 12.8123C72.4131 13.1907 72.1001 13.4883 71.6995 13.7051C71.3049 13.9219 70.8496 14.0308 70.3336 14.0318ZM76.6046 14.0195C76.1786 14.0203 75.7821 13.9431 75.415 13.7878C75.054 13.6325 74.7406 13.4171 74.4747 13.1417C74.2149 12.8602 74.0237 12.5336 73.9012 12.1618L74.9153 11.7188C75.0799 12.1025 75.3159 12.405 75.6233 12.6264C75.9308 12.8418 76.2765 12.9491 76.6605 12.9484C76.8765 12.948 77.0623 12.9146 77.2178 12.8483C77.3794 12.776 77.5017 12.6797 77.5849 12.5596C77.6741 12.4394 77.7182 12.2953 77.7171 12.1273C77.7157 11.9293 77.6547 11.7674 77.5338 11.6417C77.419 11.5099 77.2443 11.4083 77.0098 11.3367L75.7201 10.9252C75.197 10.7643 74.8024 10.5221 74.5362 10.1986C74.2701 9.87511 74.1356 9.49437 74.1326 9.05638C74.1301 8.67239 74.2209 8.33322 74.4049 8.03886C74.5949 7.74449 74.8574 7.51597 75.1924 7.35332C75.5332 7.18465 75.9227 7.09989 76.3607 7.09903C76.7627 7.09824 77.1322 7.16951 77.4691 7.31285C77.806 7.45019 78.0953 7.64462 78.337 7.89614C78.5846 8.14165 78.7696 8.43229 78.8918 8.76804L77.8868 9.22001C77.7525 8.88428 77.5528 8.62667 77.2876 8.44719C77.0224 8.26172 76.7158 8.16932 76.3678 8.17C76.1638 8.1704 75.984 8.20676 75.8285 8.27906C75.6729 8.34537 75.5506 8.4416 75.4614 8.56778C75.3782 8.68794 75.3372 8.83202 75.3383 9.00002C75.3395 9.18601 75.4006 9.35089 75.5216 9.49465C75.6425 9.63241 75.8262 9.74005 76.0727 9.81757L77.3083 10.2021C77.8434 10.3751 78.244 10.6143 78.5101 10.9198C78.7821 11.2252 78.9196 11.603 78.9226 12.053C78.9251 12.4369 78.8284 12.7761 78.6323 13.0705C78.4363 13.3649 78.1648 13.5964 77.8179 13.7651C77.471 13.9338 77.0666 14.0186 76.6046 14.0195ZM80.037 13.9047L79.9925 7.1999L82.1795 7.1956C82.8875 7.19421 83.5035 7.337 84.0274 7.62397C84.5573 7.90493 84.9679 8.29712 85.2592 8.80054C85.5505 9.29797 85.6984 9.87667 85.7027 10.5367C85.7071 11.1906 85.5669 11.7729 85.2823 12.2835C84.9977 12.788 84.5923 13.1848 84.0662 13.4738C83.5461 13.7569 82.932 13.8991 82.224 13.9005L80.037 13.9047ZM81.2539 12.8224L82.2439 12.8204C82.6999 12.8195 83.0922 12.7258 83.421 12.5391C83.7557 12.3465 84.015 12.082 84.1987 11.7456C84.3825 11.4032 84.4728 11.0011 84.4697 10.5391C84.4666 10.0711 84.371 9.66928 84.1827 9.33365C83.9945 8.99802 83.7318 8.73754 83.3946 8.5522C83.0633 8.36686 82.6697 8.27463 82.2137 8.27553L81.2237 8.27747L81.2539 12.8224Z" fill="white"/>
</g>
</svg>
